# xmcd CD database file
#
# Track frame offsets:
#	150
#	11835
#	27149
#
# Disc length: 520 seconds
#
# Revision: 1
# Processed by: cddbd v1.5.1PL2 Copyright (c) Steve Scherf et al.
# Submitted via: CDex 1.51
#
DISCID=19020603
DTITLE=Wilhyam and Wenton - Wilhyam and Wenton (Demo)
DYEAR=2006
DGENRE=Country
TTITLE0=Meu Amor Minha Vida
TTITLE1=Beco Sem Saída
TTITLE2=Vontade de Te Amar
EXTD=YEAR: 2006
EXTT0=
EXTT1=
EXTT2=
PLAYORDER=
